<svg xmlns="http://www.w3.org/2000/svg" viewBox="0 0 1120.77 192.09"><polygon points="12.89 31.15 52.34 31.15 52.34 129.1 73.63 129.1 73.44 31.15 111.33 31.15 111.33 12.79 12.89 12.79 12.89 31.15" style="fill:#ffdb00"/><path d="M6870.09,7125.11q-15.53-7-36.91-7a97.2,97.2,0,0,0-28.86,4,58.9,58.9,0,0,0-21.48,11.52,48.35,48.35,0,0,0-13.28,18.75,72.16,72.16,0,0,0-4.84,25.83q.3,19.44,8.21,32.81t23.34,20.31q15.42,6.94,36.91,6.94t37-6.89a51.11,51.11,0,0,0,23.68-20.41q8.2-13.52,8.5-32.76-.28-19.14-8.5-32.62T6870.09,7125.11Zm.15,74.32q-2.19,8.64-11.18,15.43t-27.15,6.79q-23.23,0-31.15-12.9t-7.91-30q0-43.07,39.06-43.06,25,0,32.76,12.84t8.74,30.22A125.94,125.94,0,0,1,6870.24,7199.43Z" transform="translate(-6639.61 -7105.83)" style="fill:#ffdb00"/><path d="M6831.91,7141.27q-33.21,0-33.2,37.11,0,14.85,6.74,25.93t26.46,11.09q15.33,0,22.9-5.82t9.42-13.28a108.65,108.65,0,0,0,2.64-17.92q-.78-14.94-7.32-26T6831.91,7141.27Zm26.95,52.35q-1.56,6.15-7.81,11t-18.75,4.89q-16.3,0-21.78-9.23t-5.46-21.63q0-30.77,27.24-30.76,17.28,0,22.71,9.18a45.23,45.23,0,0,1,5.9,21.58A79.22,79.22,0,0,1,6858.86,7193.62Z" transform="translate(-6639.61 -7105.83)" style="fill:#ffdb00"/><path d="M7119.59,7184.05v27.73h86.91v-5.86h-.28V7143h-86.63V7171H7168v13.09Zm5.86-18.95v-16.21h74.91v57h-74.91v-16.21h48.43V7165.1Z" transform="translate(-6639.61 -7105.83)" style="fill:#ffdb00"/><path d="M7299.29,7155.44q-.69-9.68-4.5-12.75c-2.54-2-4.68-3.08-6.44-3.08h-39.46v31h39.56a12.09,12.09,0,0,0,6.78-2.54Q7298.89,7165.5,7299.29,7155.44Zm-8.94,8.15a10.94,10.94,0,0,1-5.23,1.61H7255v-19.92H7285a9.64,9.64,0,0,1,4.93,2c2,1.34,3.14,4,3.47,8.06C7293.29,7159.77,7292.27,7162.52,7290.35,7163.59Z" transform="translate(-6639.61 -7105.83)" style="fill:#ffdb00"/><path d="M7471.41,7184.05v27.73H7560V7143h-88.63V7171h48.44v13.09Zm5.86-18.95v-16.21h76.91v57h-76.91v-16.21h48.44V7165.1Z" transform="translate(-6639.61 -7105.83)" style="fill:#ffdb00"/><path d="M7650.08,7200.45q3.53-6,4.69-21.77-.39-14.27-4.15-21.15a29,29,0,0,0-9.62-10.69q-5.86-3.81-15.33-3.81h-27.15v71.29h27.34q9.29,0,15-3.9A30.4,30.4,0,0,0,7650.08,7200.45Zm-11.77,4.25q-4.14,3.47-13,3.76h-20.9v-58.79h20.8q8.59.1,12.84,3.71a25.05,25.05,0,0,1,6.59,8.7q2.36,5.07,3,17-1,14.25-3.08,18.21A25.07,25.07,0,0,1,7638.31,7204.7Z" transform="translate(-6639.61 -7105.83)" style="fill:#ffdb00"/><path d="M7689.1,7123.21a58.91,58.91,0,0,0-21.78-12.11q-13-4.2-29.93-4.2H7377.7v128.91q-1.17,8.79-3.41,12a15.08,15.08,0,0,1-5.86,5,30.59,30.59,0,0,1-8.79,2.54,83.82,83.82,0,0,1-13.77.58q-7,.19-10.55-4.1L7299,7192.45q16.41-3.91,25.2-10.75a36.41,36.41,0,0,0,12.4-17.67q3.61-10.84,2.05-20a45.91,45.91,0,0,0-5.27-15.53q-3.72-6.34-14-13.18t-27.24-8.4h-210.4v-.19h-36.82l-13.08,60.94-19.63-60.94H6970l-16.8,60.94-19.33-60.94-97.6-.88.2.05c-1.23,0-2.47-.05-3.72-.05-13,0-23.72,1.47-34.08,4.73a68.85,68.85,0,0,0-25.39,13.92,57.5,57.5,0,0,0-10.07,11.72v-29.3H6639.61v42h38.87v99h45.9v-99h32.55a85,85,0,0,0-4.71,29.3q0,23.34,9.38,39.5t27.59,24.41q18.21,8.26,43.6,8.26t43.7-8.21q18.32-8.2,28-24.51a69.34,69.34,0,0,0,8.84-26.6l17.67,56.69h45.9l14.84-59.77,17.87,59.77h45.9l24.06-94.92v95.11h171.79v-46.59l58,85.65q8.7,11.13,36.53,10.94a241.71,241.71,0,0,0,24.41-1,135.75,135.75,0,0,0,20.51-4,52.29,52.29,0,0,0,18.85-8.88q7.51-5.86,10.45-12.5t3.51-22.85v-99.81h7.77v99H7635q19.34.38,32.18-3.91A62.6,62.6,0,0,0,7689,7231.9q8.88-7.82,14.26-21.29t6.44-33.2q0-20.31-5.91-33.3T7689.1,7123.21ZM6718.52,7143v99h-34.18v-99h-38.87v-30.27h111.92V7143ZM6899,7214.37a55.68,55.68,0,0,1-25.83,22.56q-16.89,7.56-40.33,7.57t-40.23-7.62q-16.8-7.62-25.44-22.46t-9-36.33q.39-16.2,5.32-28.56a53.69,53.69,0,0,1,14.51-20.76,64.72,64.72,0,0,1,23.43-12.79,104,104,0,0,1,31.45-4.39q23.34,0,40.28,7.71T6899,7142q8.94,14.94,9.33,36.23Q6907.89,7199.39,6899,7214.37Zm798.59-5.22q-5.65,12-12.3,18.16a53.38,53.38,0,0,1-16.7,10.16q-10.06,4-33.5,4.59H7437.23v-99h-19.49V7248.7q-.78,14.25-3,19.72t-8.39,10.65q-6.16,5.18-17,8.3a105.09,105.09,0,0,1-19.82,3.9q-9,.78-23.63.79-24.81.39-33.79-11.33L7255,7195.47h-9.47v46.59H7085.41v-99h-3.65v-.19h-5.86l-24.71,99h-37.11l-18.26-59.67h-8l-15.43,59.67h-36.52l-22.12-72.66q-1.55-17.41-9.27-30.43c-.36-.6-.74-1.2-1.12-1.8h5.95l31.05,99,27.15.09,16.41-59.08h15.43l18.75,59.87h29l24.32-99.91h8.14v.19h11.91v80.47l-.19,18.56h148.54v-46.88h19.73l54.88,85.55q9.18,12.1,31.45,11.33,14.05,0,22.85-.69a92,92,0,0,0,19.24-3.81q10.44-3.12,15.28-7.47a23.67,23.67,0,0,0,6.54-8.74q1.71-4.39,2.69-16.89V7137.17h30.82l-.05,99H7635q25.7-.58,34.08-4.3a42.9,42.9,0,0,0,13.14-8.45q4.74-4.74,10.3-15.57t6-30.37q-1.08-17.3-2.69-22.71a67.36,67.36,0,0,0-4.49-11.13,44.69,44.69,0,0,0-9-11.67q-6.15-6-17.68-9.67t-27.24-3.71H7388.84v117.19q-1,13.08-4,18.36a21.1,21.1,0,0,1-9.13,8.39,45.71,45.71,0,0,1-11.28,4.2q-5.13,1.08-18.6.88-12.4.1-16.21-6.44l-42.19-67.58v-2.54q24.79-12.69,30.57-17.77a27.34,27.34,0,0,0,8.1-12.41,34,34,0,0,0,1.56-14.25,29,29,0,0,0-3.41-11.43q-2.64-4.49-10.65-10t-21.48-6.64h-210.4v-.19h-28.42l-15.23,60.06h-13l-20.8-60.35h-24.61l-19,60.45h-15.43l-19.93-60.16H6884.4a67.61,67.61,0,0,0-8-4.25c-1.24-.57-2.52-1.1-3.81-1.61h57.08l19.33,60.94h8.4l17.58-60.94h33.2l20.41,60.94h6.55l14.45-60.94h29.92v.19h212.61q15,1.36,24.31,7.62t12.36,11.57a36.89,36.89,0,0,1,4.2,13.43,36.41,36.41,0,0,1-2,17,33.56,33.56,0,0,1-10.45,15q-7.36,6.15-27.49,13.86v2.35l39.26,63.08q3.51,5.48,13.48,5.08a106.66,106.66,0,0,0,16.11-.58,32,32,0,0,0,10.16-3.42A22,22,0,0,0,7380,7251q2.88-4.09,3.56-15.23V7112.76h253.83q17-.39,29.2,4.1t19,11.13a50.52,50.52,0,0,1,10.06,13,112.4,112.4,0,0,1,5.27,11.92q2.05,5.57,2.83,24.51Q7703.21,7197.14,7697.54,7209.15Zm-582.84-34.28v-37.7h97.57v80.47h-5.77l-92-.19v-37.31H7162v-5.27Zm129,1.95v-42.67h48.34q3.22,0,7.91,4.2t5.57,17.57q-.6,13.77-5.08,17.34c-3,2.37-5.76,3.56-8.3,3.56Zm222.81-1.95v-37.7h99.57v80.47h-7.78l-92-.19v-37.31h47.46v-5.27Zm125.74,44.53v-82.32h33.11q11.61,0,18.74,4.39a34.34,34.34,0,0,1,11.72,12.3q4.59,7.92,5,24.32-1.26,18.16-5.56,25.2a36.33,36.33,0,0,1-11.28,11.57q-7,4.55-18.41,4.54Z" transform="translate(-6639.61 -7105.83)" style="fill:#ffdb00"/><path d="M7714.49,7106.9v141h45.9v-141Zm40,135.16h-34.18v-129.3h34.18Z" transform="translate(-6639.61 -7105.83)" style="fill:#ffdb00"/><polygon points="1108.86 13.18 1086.69 13.38 1086.69 130.66 1108.86 130.37 1108.86 13.18" style="fill:#ffdb00"/></svg>